<svg xmlns="http://www.w3.org/2000/svg" xmlns:xlink="http://www.w3.org/1999/xlink" width="512" height="12475" viewBox="0 0 512 12475"><svg viewBox="0 0 129 129" width="129" height="129" id="arrow-down" y="0"><path d="M121.3 34.6c-1.6-1.6-4.2-1.6-5.8 0l-51 51.1-51.1-51.1c-1.6-1.6-4.2-1.6-5.8 0-1.6 1.6-1.6 4.2 0 5.8l53.9 53.9c.8.8 1.8 1.2 2.9 1.2 1 0 2.1-.4 2.9-1.2l53.9-53.9c1.7-1.6 1.7-4.2.1-5.8z"></path></svg><svg viewBox="0 0 477.175 477.175" width="477.175" height="477.175" id="arrow-left" y="129"><path d="M145.188 238.575l215.5-215.5c5.3-5.3 5.3-13.8 0-19.1s-13.8-5.3-19.1 0l-225.1 225.1c-5.3 5.3-5.3 13.8 0 19.1l225.1 225c2.6 2.6 6.1 4 9.5 4s6.9-1.3 9.5-4c5.3-5.3 5.3-13.8 0-19.1l-215.4-215.5z"></path></svg><svg viewBox="0 0 477.175 477.175" width="477.175" height="477.175" id="arrow-right" y="607"><path d="M360.731 229.075l-225.1-225.1c-5.3-5.3-13.8-5.3-19.1 0s-5.3 13.8 0 19.1l215.5 215.5-215.5 215.5c-5.3 5.3-5.3 13.8 0 19.1 2.6 2.6 6.1 4 9.5 4 3.4 0 6.9-1.3 9.5-4l225.1-225.1c5.3-5.2 5.3-13.8.1-19z"></path></svg><svg width="64" height="64" viewBox="0 0 64 64" id="arrow-up" y="1085"><path d="M3.352 48.296l28.56-28.328 28.58 28.347c.397.394.917.59 1.436.59.52 0 1.04-.196 1.436-.59a2.003 2.003 0 0 0 0-2.849l-29.98-29.735c-.2-.2-.494-.375-.757-.475a2.052 2.052 0 0 0-2.166.456L.479 45.447a2.003 2.003 0 0 0 0 2.849 2.045 2.045 0 0 0 2.873 0z"></path></svg><svg viewBox="0 0 475.2 475.2" width="475.2" height="475.2" id="cancel" y="1149"><path d="M405.6 69.6C360.7 24.7 301.1 0 237.6 0s-123.1 24.7-168 69.6S0 174.1 0 237.6s24.7 123.1 69.6 168 104.5 69.6 168 69.6 123.1-24.7 168-69.6 69.6-104.5 69.6-168-24.7-123.1-69.6-168zm-19.1 316.9c-39.8 39.8-92.7 61.7-148.9 61.7s-109.1-21.9-148.9-61.7c-82.1-82.1-82.1-215.7 0-297.8C128.5 48.9 181.4 27 237.6 27s109.1 21.9 148.9 61.7c82.1 82.1 82.1 215.7 0 297.8z"></path><path d="M342.3 132.9c-5.3-5.3-13.8-5.3-19.1 0l-85.6 85.6-85.6-85.6c-5.3-5.3-13.8-5.3-19.1 0-5.3 5.3-5.3 13.8 0 19.1l85.6 85.6-85.6 85.6c-5.3 5.3-5.3 13.8 0 19.1 2.6 2.6 6.1 4 9.5 4s6.9-1.3 9.5-4l85.6-85.6 85.6 85.6c2.6 2.6 6.1 4 9.5 4 3.5 0 6.9-1.3 9.5-4 5.3-5.3 5.3-13.8 0-19.1l-85.4-85.6 85.6-85.6c5.3-5.3 5.3-13.8 0-19.1z"></path></svg><svg viewBox="0 0 26 26" width="26" height="26" id="checked" y="1625"><path d="M.3 14c-.2-.2-.3-.5-.3-.7s.1-.5.3-.7l1.4-1.4c.4-.4 1-.4 1.4 0l.1.1 5.5 5.9c.2.2.5.2.7 0L22.8 3.3h.1c.4-.4 1-.4 1.4 0l1.4 1.4c.4.4.4 1 0 1.4l-16 16.6c-.2.2-.4.3-.7.3-.3 0-.5-.1-.7-.3L.5 14.3.3 14z"></path></svg><svg viewBox="0 0 392.408 392.408" width="392.408" height="392.408" id="city" y="1651"><path d="M78.767 78.408l98.907 30.035 4.94-16.267L76.654 60 29.562 87.175l8.497 14.724z"></path><path d="M78.767 108.408l98.907 30.035 4.94-16.267L76.654 90l-47.092 27.175 8.497 14.724z"></path><path d="M78.767 138.408l98.907 30.035 4.94-16.267L76.654 120l-47.092 27.175 8.497 14.724z"></path><path d="M78.767 168.408l98.907 30.035 4.94-16.267L76.654 150l-47.092 27.175 8.497 14.724z"></path><path d="M78.767 198.408l98.907 30.035 4.94-16.267L76.654 180l-47.092 27.174 8.496 14.724z"></path><path d="M78.767 228.408l98.907 30.035 4.94-16.267L76.654 210l-47.092 27.174 8.496 14.724z"></path><path d="M78.767 258.408l98.907 30.035 4.94-16.267L76.654 240l-47.092 27.174 8.496 14.724z"></path><path d="M78.767 288.408l98.907 30.035 4.94-16.267L76.654 270l-47.092 27.174 8.496 14.724zm161.566-210l98.907 30.035 4.939-16.267L238.219 60l-47.091 27.175 8.496 14.724z"></path><path d="M240.333 48.408l98.907 30.035 4.939-16.267L238.219 30l-47.091 27.175 8.496 14.724z"></path><path d="M240.333 18.408l98.907 30.035 4.939-16.267L238.219 0l-47.091 27.175 8.496 14.724zm0 90l98.907 30.035 4.939-16.267L238.219 90l-47.091 27.175 8.496 14.724z"></path><path d="M240.333 138.408l98.907 30.035 4.939-16.267L238.219 120l-47.091 27.175 8.496 14.724z"></path><path d="M240.333 168.408l98.907 30.035 4.939-16.267L238.219 150l-47.091 27.175 8.496 14.724z"></path><path d="M240.333 198.408l98.907 30.035 4.939-16.267L238.219 180l-47.091 27.174 8.496 14.724z"></path><path d="M240.333 228.408l98.907 30.035 4.939-16.267L238.219 210l-47.091 27.174 8.496 14.724z"></path><path d="M240.333 258.408l98.907 30.035 4.939-16.267L238.219 240l-47.091 27.174 8.496 14.724z"></path><path d="M240.333 288.408l98.907 30.035 4.939-16.267L238.219 270l-47.091 27.174 8.496 14.724z"></path><path d="M339.423 376.149v-28.311l4.756-15.662L238.219 300l-47.092 27.174 4.756 8.241v40.734h-18.025v-28.311l4.756-15.662L76.654 300l-47.092 27.174 4.755 8.241v40.734H9.204v16.259h374v-16.259h-43.781zm-238.336 0v-34.564l51.921 12.461v22.103h-51.921zm161.567 0v-34.564l51.92 12.461v22.103h-51.92z"></path></svg><svg width="54.422" height="54.422" viewBox="0 0 139 139" id="close" y="2044"><path class="fil0" d="M7 0l63 63 62-63 7 7-63 63 63 62-7 7-62-63-63 63-7-7 63-62L0 7z"></path></svg><svg viewBox="0 0 60 60" width="60" height="60" id="coins" y="2099"><path d="M59.989 21c-.099-1.711-2.134-3.048-6.204-4.068.137-.3.214-.612.215-.936V9h-.017C53.625 3.172 29.743 3 27 3S.375 3.172.017 9H0v6.999c.005 1.9 2.457 3.387 6.105 4.494-.05.166-.08.335-.09.507H6v6.987C2.07 28.999.107 30.317.01 32H0v6.999c.003 1.323 1.196 2.445 3.148 3.38-.074.203-.12.41-.133.622H3V50c.008 3.326 7.497 5.391 15.818 6.355.061.012.117.037.182.037.019 0 .035-.01.054-.011 1.604.181 3.234.322 4.847.423.034.004.064.02.099.02.019 0 .034-.01.052-.011A99.33 99.33 0 0 0 30 57c1.885 0 3.9-.063 5.948-.188.018.001.034.011.052.011.035 0 .065-.017.099-.02a96.863 96.863 0 0 0 4.847-.423c.019 0 .035.01.054.01.065 0 .121-.025.182-.037 8.321-.964 15.809-3.03 15.818-6.357V43h-.016c-.07-1.226-1.115-2.249-3.179-3.104.126-.289.195-.589.195-.9V32.46c3.59-1.104 5.995-2.581 6-4.464V21h-.011zm-8.097 18.321l-.341.299c-.525.463-1.4.93-2.551 1.38v-4.768c1.189-.414 2.201-.873 3-1.376v4.138a.636.636 0 0 1-.108.327zm-22.366 4.647c-.146.004-.293.006-.44.009-.357.007-.723.009-1.085.012v-4.995l.825-.012.159-.003c1.007-.019 2.014-.05 3.016-.096v4.993a88.817 88.817 0 0 1-2.475.092zm-4.367.014c-.458-.008-.914-.019-1.367-.033l-.168-.006c-.545-.018-1.086-.041-1.623-.067v-4.992a104.147 104.147 0 0 0 3.174.099l.825.012v4.998c-.194-.002-.388-.002-.581-.005-.088-.002-.173-.005-.26-.006zm-18.062-2.28A3.537 3.537 0 0 0 7 41.674v-4.831c.934.252 1.938.482 3 .691v4.881c-.918-.195-1.765-.4-2.536-.61-.122-.035-.248-.068-.367-.103zm21.078 8.281l.825.012v4.999a101.034 101.034 0 0 1-4-.116v-4.993a104.147 104.147 0 0 0 3.175.098zm3.809-.003c1.007-.019 2.014-.05 3.016-.096v4.993c-1.284.063-2.618.103-4 .116v-4.999a113.474 113.474 0 0 0 .984-.014zM40 49.528v4.966c-.961.101-1.961.19-3 .263V49.77a96.415 96.415 0 0 0 3-.242zm2-.216a73.794 73.794 0 0 0 3-.422v4.91c-.942.166-1.943.319-3 .458v-4.946zm5-.779a44.704 44.704 0 0 0 3-.691v4.831c-.891.257-1.894.506-3 .741v-4.881zm-34 0v4.881a43.562 43.562 0 0 1-3-.741v-4.831c.934.252 1.938.483 3 .691zm2 .358c.968.157 1.969.298 3 .422v4.946a69.655 69.655 0 0 1-3-.458v-4.91zm5 .637a99.56 99.56 0 0 0 3 .243v4.987a87.083 87.083 0 0 1-3-.263v-4.967zm-2.481-5.98l-.304-.031-.215-.023v-4.965a99.56 99.56 0 0 0 3 .243v4.983a96.79 96.79 0 0 1-2.481-.207zM15 38.312v4.946a69.655 69.655 0 0 1-3-.458v-4.91c.968.157 1.969.299 3 .422zm19.666 5.396l-.666.05v-4.987a96.392 96.392 0 0 0 3-.243v4.966a81.624 81.624 0 0 1-2.334.214zm4.334-.45v-4.946a73.794 73.794 0 0 0 3-.422v4.91c-.942.166-1.943.32-3 .458zm5-5.725a44.704 44.704 0 0 0 3-.691v4.831c-.891.257-1.894.506-3 .741v-4.881zm-13.675-4.568a95.164 95.164 0 0 1-2.209-.083L28 32.877v-4.993a104.147 104.147 0 0 0 3.174.099l.825.012v4.993c-.487-.005-.978-.007-1.453-.018l-.221-.005zM7 18.674v-4.831c.934.252 1.938.482 3 .691v4.881l-.37-.078A42.126 42.126 0 0 1 7 18.674zm18.175-2.691l.825.012v4.993a99.16 99.16 0 0 1-4-.114v-4.989a104.147 104.147 0 0 0 3.175.098zm3.809-.003c1.007-.019 2.014-.05 3.016-.096v4.989c-.17.008-.333.02-.504.028l-.043.002c-.671.03-1.355.052-2.048.068l-.324.007c-.356.007-.72.008-1.081.012v-4.995l.825-.012.159-.003zm22.787.502l-.028-.006-.364.283c-.528.411-1.339.827-2.379 1.229v-4.757c1.189-.414 2.201-.873 3-1.376v4.138c0 .152-.08.316-.229.489zM39 20.252v-4.94a73.794 73.794 0 0 0 3-.422v4.902c-.948.168-1.946.322-3 .46zm5-.845v-4.873a44.704 44.704 0 0 0 3-.691v4.82c-.896.261-1.905.51-3 .744zm-7-3.879v4.96c-.966.102-1.966.191-3 .265v-4.982a99.56 99.56 0 0 0 3-.243zM17 20.49v-4.962a99.56 99.56 0 0 0 3 .243v4.978a90.68 90.68 0 0 1-3-.259zm-2-5.178v4.941c-.198-.026-.404-.047-.6-.074l-.376-.055a72.39 72.39 0 0 1-1.697-.265L12 19.801v-4.91c.968.156 1.969.298 3 .421zm10.752 17.427l-.405-.03c-.64-.05-1.265-.105-1.875-.166l-.392-.04c-.027-.003-.053-.007-.08-.009v-4.966a99.56 99.56 0 0 0 3 .243v4.984l-.248-.016zm-6.607-.747c-.396-.063-.768-.131-1.145-.197v-4.904c.968.157 1.969.298 3 .422v4.946a76.718 76.718 0 0 1-1.855-.267zM16 26.533v4.873a42.01 42.01 0 0 1-3-.751v-4.813c.934.252 1.938.483 3 .691zm-5-1.302v4.751c-1.572-.607-2.586-1.227-2.916-1.779l-.067-.112c-.006-.031-.016-.064-.017-.095v-4.141c.799.503 1.811.962 3 1.376zm23.984 2.749c1.007-.019 2.014-.05 3.016-.096v4.988c-1.314.065-2.65.101-4 .115v-4.992l.825-.012.159-.003zm12.923 3.837a64.384 64.384 0 0 1-2.133.336c-.253.036-.516.067-.773.1v-4.941a73.794 73.794 0 0 0 3-.422v4.91l-.094.017zm-6.771.854c-.373.031-.758.051-1.136.078v-4.978a96.392 96.392 0 0 0 3-.243v4.961c-.581.061-1.161.122-1.758.172l-.106.01zm11.428-1.875a46.66 46.66 0 0 1-2.326.568c-.077.017-.159.032-.237.049v-4.879a44.704 44.704 0 0 0 3-.691v4.831l-.437.122zm5.425-9.731c-.092.679-1.631 1.582-4.378 2.431-3.538 1.093-9.074 2.094-16.09 2.404-.359.015-.717.03-1.083.042-.299.01-.599.019-.904.027-.828.018-1.668.031-2.534.031s-1.706-.013-2.534-.032c-.304-.007-.604-.017-.904-.027-.367-.011-.725-.027-1.083-.042-7.016-.31-12.553-1.311-16.09-2.404-2.725-.842-4.261-1.738-4.375-2.414.005-.019.005-.035.017-.059.068.017.144.031.213.048.391.093.792.183 1.2.269 1.987.428 4.189.779 6.535 1.047.008 0 .014.004.021.004l.005-.001c1.598.182 3.256.325 4.958.426.013 0 .024.007.037.007.007 0 .012-.004.019-.004a102.259 102.259 0 0 0 7.587.166c7.266-.112 14-.976 18.686-2.315.216-.061.427-.124.635-.187.127-.039.257-.077.38-.116.362-.116.709-.235 1.044-.359l.171-.066c.283-.107.555-.218.815-.331.075-.033.152-.065.225-.098.277-.125.545-.253.793-.386.112-.059.209-.12.314-.18a8.8 8.8 0 0 0 .351-.21c.063-.04.138-.078.198-.118 4.477.971 5.657 2.033 5.771 2.447zM27 5c16.489 0 24.829 2.596 24.985 4.086-.121.676-1.656 1.569-4.374 2.409-3.538 1.093-9.074 2.094-16.09 2.404-.359.015-.717.03-1.083.042A109.893 109.893 0 0 1 27 14c-.866 0-1.706-.013-2.534-.032-.304-.007-.604-.017-.904-.027-.367-.011-.725-.027-1.083-.042-7.016-.31-12.553-1.311-16.09-2.404-2.719-.84-4.253-1.733-4.374-2.409C2.171 7.596 10.511 5 27 5zM2 15.996v-4.141c.799.503 1.811.962 3 1.376v4.788c-1.945-.729-2.998-1.46-3-2.023zm4.844 13.839c.015.016.038.03.053.046 1.369 1.382 4.204 2.468 7.733 3.278l.249.056c.259.058.522.115.788.17 3.241.69 7.11 1.189 11.325 1.436l.007.001.004-.001c1.354.079 2.739.134 4.153.158a89.072 89.072 0 0 0 3.962-.004c1.308-.027 2.597-.081 3.868-.155.005 0 .009.003.014.003.009 0 .016-.005.025-.005 4.226-.249 8.191-.753 11.544-1.478-.726.38-1.72.773-2.958 1.156-3.735 1.154-9.7 2.205-17.281 2.449-.225.007-.447.015-.675.021-.245.006-.494.01-.743.015-.629.01-1.262.019-1.912.019-.866 0-1.706-.013-2.534-.032-.304-.007-.604-.017-.904-.027-.367-.011-.725-.027-1.083-.042-7.016-.31-12.553-1.311-16.09-2.404-2.75-.85-4.289-1.754-4.378-2.433.111-.376 1.122-1.317 4.833-2.227zM2 38.996v-4.141c.799.503 1.811.962 3 1.376V41l-.571-.222-.012.012C2.847 40.139 2.002 39.5 2 38.996zm3 11v-4.141c.799.503 1.811.962 3 1.376v4.788c-1.945-.729-2.998-1.46-3-2.023zm47 2.023v-4.787c1.189-.414 2.201-.873 3-1.376v4.138c-.001.563-1.055 1.295-3 2.025zm2.987-8.942c-.109.677-1.645 1.575-4.376 2.419-3.538 1.093-9.074 2.094-16.09 2.404-.359.015-.717.03-1.083.042-.299.01-.599.019-.904.027-.828.018-1.668.031-2.534.031-.866 0-1.707-.013-2.536-.032-.301-.007-.598-.017-.895-.027-.369-.012-.729-.027-1.09-.042-7.016-.31-12.552-1.311-16.09-2.404-2.645-.817-4.173-1.685-4.365-2.355a29.508 29.508 0 0 0 2.173.663c.16.043.324.084.488.126 3.642.933 8.291 1.594 13.31 1.891l.005.001.003-.001c1.55.092 3.133.149 4.733.168.426.008.849.012 1.264.012.551 0 1.115-.007 1.686-.017a100.08 100.08 0 0 0 4.307-.162l.008.002c.005 0 .008-.003.013-.003a92.054 92.054 0 0 0 4.97-.433c.006 0 .011.003.017.003.022 0 .04-.011.062-.013a72.52 72.52 0 0 0 6.186-.976c2.953-.606 5.509-1.391 7.263-2.364.096-.052.186-.106.277-.159.111-.066.217-.133.32-.201.096-.062.207-.122.295-.185 1.974.704 2.518 1.334 2.583 1.585zM55 30.019v-4.787c1.189-.414 2.201-.873 3-1.376v4.138c-.001.563-1.055 1.295-3 2.025z"></path></svg><svg width="512" height="512" viewBox="0 0 512 512" id="eye" y="2159"><path d="M256 96C144.341 96 47.559 161.021 0 256c47.559 94.979 144.341 160 256 160 111.656 0 208.439-65.021 256-160-47.559-94.979-144.344-160-256-160zm126.225 84.852c30.082 19.187 55.572 44.887 74.719 75.148-19.146 30.261-44.639 55.961-74.719 75.148C344.428 355.257 300.779 368 256 368c-44.78 0-88.428-12.743-126.225-36.852C99.695 311.96 74.205 286.26 55.058 256c19.146-30.262 44.637-55.962 74.717-75.148a235.143 235.143 0 0 1 5.929-3.65C130.725 190.866 128 205.613 128 221c0 70.691 57.308 128 128 128 70.691 0 128-57.309 128-128 0-15.387-2.725-30.134-7.703-43.799a240.633 240.633 0 0 1 5.928 3.651zM256 205c0 26.51-21.49 48-48 48s-48-21.49-48-48 21.49-48 48-48 48 21.49 48 48z"></path></svg><svg viewBox="0 0 59 59" width="59" height="59" id="garbage" y="2671"><path d="M29.5 51a1 1 0 0 0 1-1V17a1 1 0 1 0-2 0v33a1 1 0 0 0 1 1zm-10 0a1 1 0 0 0 1-1V17a1 1 0 1 0-2 0v33a1 1 0 0 0 1 1zm20 0a1 1 0 0 0 1-1V17a1 1 0 1 0-2 0v33a1 1 0 0 0 1 1z"></path><path d="M52.5 6H38.456c-.11-1.25-.495-3.358-1.813-4.711C35.809.434 34.751 0 33.499 0H23.5c-1.252 0-2.31.434-3.144 1.289C19.038 2.642 18.653 4.75 18.543 6H6.5a1 1 0 1 0 0 2h2.041l1.915 46.021C10.493 55.743 11.565 59 15.364 59h28.272c3.799 0 4.871-3.257 4.907-4.958L50.459 8H52.5a1 1 0 1 0 0-2zM21.792 2.681C22.24 2.223 22.799 2 23.5 2h9.999c.701 0 1.26.223 1.708.681.805.823 1.128 2.271 1.24 3.319H20.553c.112-1.048.435-2.496 1.239-3.319zm24.752 51.298C46.538 54.288 46.4 57 43.636 57H15.364c-2.734 0-2.898-2.717-2.909-3.042L10.542 8h37.915l-1.913 45.979z"></path></svg><svg viewBox="0 0 471.701 471.701" width="471.701" height="471.701" id="heart" y="2730"><path d="M433.601 67.001c-24.7-24.7-57.4-38.2-92.3-38.2s-67.7 13.6-92.4 38.3l-12.9 12.9-13.1-13.1c-24.7-24.7-57.6-38.4-92.5-38.4-34.8 0-67.6 13.6-92.2 38.2-24.7 24.7-38.3 57.5-38.2 92.4 0 34.9 13.7 67.6 38.4 92.3l187.8 187.8c2.6 2.6 6.1 4 9.5 4 3.4 0 6.9-1.3 9.5-3.9l188.2-187.5c24.7-24.7 38.3-57.5 38.3-92.4.1-34.9-13.4-67.7-38.1-92.4zm-19.2 165.7l-178.7 178-178.3-178.3c-19.6-19.6-30.4-45.6-30.4-73.3s10.7-53.7 30.3-73.2c19.5-19.5 45.5-30.3 73.1-30.3 27.7 0 53.8 10.8 73.4 30.4l22.6 22.6c5.3 5.3 13.8 5.3 19.1 0l22.4-22.4c19.6-19.6 45.7-30.4 73.3-30.4 27.6 0 53.6 10.8 73.2 30.3 19.6 19.6 30.3 45.6 30.3 73.3.1 27.7-10.7 53.7-30.3 73.3z"></path></svg><svg viewBox="0 0 60 60" width="60" height="60" id="house" y="3202"><path d="M14 36.182h14v-10H14v10zm2-2v-3h10v3H16zm10-6v1H16v-1h10zm-12 12v12h14v-12H14zm6 2v3h-4v-3h4zm-4 5h4v3h-4v-3zm6 3v-3h4v3h-4zm4-5h-4v-3h4v3zm6-9h14v-10H32v10zm2-2v-1h10v1H34zm10-6v3H34v-3h10z"></path><path d="M59 48.182a1 1 0 0 0-1 1v1h-1v-1a1 1 0 1 0-2 0v1h-1V29.978a3.975 3.975 0 0 0 1.626.363 4.01 4.01 0 0 0 3.984-4.322 4.017 4.017 0 0 0-1.522-2.833L32.722 3.345 30 .818 27.343 3.29 1.913 23.186a4.01 4.01 0 0 0-1.522 2.833 4.01 4.01 0 0 0 1.057 3.038 3.968 3.968 0 0 0 4.553.922v20.204H5v-1a1 1 0 1 0-2 0v1H2v-1a1 1 0 1 0-2 0v9a1 1 0 1 0 2 0v-1h1v1a1 1 0 1 0 2 0v-1h1v2h48v-2h1v1a1 1 0 1 0 2 0v-1h1v1a1 1 0 1 0 2 0v-9a1 1 0 0 0-1-1.001zM2.912 27.695a1.977 1.977 0 0 1-.527-1.518 1.975 1.975 0 0 1 .761-1.416L28.64 4.811l1.361-1.265 1.424 1.319 25.43 19.896c.446.349.716.852.761 1.416a1.979 1.979 0 0 1-.527 1.518 1.99 1.99 0 0 1-2.686.223l-.403-.31-24-18.5-23.61 18.2-.001.001-.791.609a1.99 1.99 0 0 1-2.686-.223zM2 55.182v-3h1v3H2zm3 0v-3h1v3H5zm29 2v-15h10v15H34zm18 0h-6v-17H32v17H8V28.591l22-16.959 22 16.959v28.591zm2-2v-3h1v3h-1zm3 0v-3h1v3h-1z"></path></svg><svg viewBox="0 0 512 512" width="512" height="512" id="house-1" y="3262"><path d="M506.552 317.933c-9.739-14.312-29.351-18.1-43.707-8.452l-65.34 43.728-.19-136.11 22.7 21.265a25.843 25.843 0 0 0 17.729 7.009h.039a26.04 26.04 0 0 0 18.898-8.205c4.737-5.057 7.222-11.655 6.996-18.581-.226-6.926-3.136-13.349-8.193-18.086l-43.035-40.314a7.31 7.31 0 0 0-9.993 10.667l43.035 40.314a11.25 11.25 0 0 1 3.577 7.895 11.248 11.248 0 0 1-3.055 8.111 11.215 11.215 0 0 1-8.252 3.582h-.017c-2.883 0-5.63-1.086-7.737-3.06l-.001-.001L259.124 67.616a7.308 7.308 0 0 0-10.007.014L78.679 228.188a11.275 11.275 0 0 1-8.103 3.076 11.245 11.245 0 0 1-7.905-3.556 11.245 11.245 0 0 1-3.076-8.102 11.25 11.25 0 0 1 3.554-7.905L246.326 39.143c4.342-4.091 11.154-4.101 15.507-.021L369 139.514a7.308 7.308 0 0 0 9.993-10.667L271.827 28.455c-9.973-9.344-25.576-9.323-35.523.049l-58.639 55.24-.016-9.853a11.546 11.546 0 0 0-3.417-8.216 11.548 11.548 0 0 0-8.209-3.394h-.017l-41.947.059a11.548 11.548 0 0 0-8.216 3.417 11.55 11.55 0 0 0-3.393 8.227l.116 71.087-59.439 55.993c-5.044 4.751-7.935 11.182-8.142 18.108-.207 6.926 2.296 13.518 7.047 18.56 4.75 5.044 11.181 7.936 18.108 8.143.265.008.53.012.795.012 6.635 0 12.918-2.49 17.767-7.06l22.649-21.336.09 64.291a154 154 0 0 0-22.19-1.627H76.746v-4.382c0-14.711-11.969-26.68-26.68-26.68H26.68C11.969 249.092 0 261.06 0 275.772V390.29a7.308 7.308 0 0 0 14.616 0V275.772c0-6.652 5.412-12.064 12.064-12.064h23.385c6.652 0 12.064 5.412 12.064 12.064v173.061c0 6.652-5.412 12.064-12.064 12.064H26.68c-6.652 0-12.064-5.412-12.064-12.064v-12.788a7.308 7.308 0 0 0-14.616 0v12.788c0 14.711 11.969 26.68 26.68 26.68h23.385c14.711 0 26.68-11.968 26.68-26.68v-.993l107.024 40.528c.198.075.399.141.603.198 4.653 1.314 9.304 1.973 13.896 1.973 2.484 0 4.951-.193 7.393-.579l157.281-22.672.11-.017a76.996 76.996 0 0 0 36.48-16.346c.091-.074.181-.151.268-.23l101.611-91.388c11.833-10.505 14.042-28.292 5.141-41.374zM163.037 76.902l.034 20.59-35.912 33.83-.089-54.371 35.967-.049zm91.104 6.074l128.538 120.412.223 159.593-20.691 13.848L340.3 375.6l-.579-5.82a46.279 46.279 0 0 0-37.18-40.922l-.132-94.945c-.01-7.286-5.942-13.207-13.227-13.207h-.018l-69.654.098a13.137 13.137 0 0 0-9.347 3.887 13.137 13.137 0 0 0-3.861 9.357l.116 82.781a138.887 138.887 0 0 1-39.288-15.568 153.941 153.941 0 0 0-4.654-2.611c-.61-.329-1.23-.638-1.845-.959-.952-.497-1.902-.997-2.864-1.474-.766-.38-1.541-.74-2.313-1.107-.819-.389-1.637-.782-2.462-1.157-.84-.381-1.687-.744-2.533-1.11-.773-.334-1.546-.67-2.324-.991-.87-.359-1.745-.704-2.621-1.047-.777-.304-1.555-.606-2.336-.898-.867-.324-1.738-.637-2.611-.944a152.085 152.085 0 0 0-7.679-2.483c-.775-.228-1.549-.456-2.328-.672a153.144 153.144 0 0 0-3.062-.81c-.479-.123-.955-.262-1.437-.381l-.113-80.878L254.141 82.976zm33.782 244.053l-61.125-7.037-5.759-.663-.118-83.911 66.874-.094.128 91.705zm203.75 21.381l-101.511 91.298a62.364 62.364 0 0 1-29.361 13.122l-157.213 22.662-.098.015-.109.017c-4.763.754-9.723.436-14.744-.942L76.746 432.21V294.77h12.505a139.552 139.552 0 0 1 32.661 3.888c1.265.305 2.527.619 3.783.959l.329.092c1.259.344 2.513.707 3.763 1.086.224.068.449.135.672.204 1.33.411 2.654.84 3.971 1.29l.407.142a139.368 139.368 0 0 1 8.579 3.282 139.403 139.403 0 0 1 4.092 1.797c1.276.586 2.543 1.194 3.802 1.819.148.073.297.145.445.219 1.23.615 2.45 1.252 3.663 1.904.229.123.457.249.686.373 1.224.667 2.441 1.347 3.646 2.052 17.391 10.173 36.323 16.762 56.271 19.585.063.009.125.017.188.024l81.881 9.427a31.695 31.695 0 0 1 26.101 22.994c.472 1.718.804 3.496.986 5.319l.325 3.27-153.46-13.445a7.307 7.307 0 1 0-1.276 14.56l162.242 14.215c.039.003.077.002.115.005.038.003.075.009.114.012l30.597 1.717c.137.008.273.011.409.011.145 0 .288-.023.432-.032.163-.01.326-.016.488-.036.218-.028.431-.075.645-.122.153-.034.307-.059.457-.103.234-.067.459-.158.686-.249.122-.049.248-.086.368-.142.341-.158.673-.34.989-.552l25.972-17.381.003-.003 76.702-51.332c7.717-5.187 18.251-3.152 23.482 4.536 4.782 7.026 3.595 16.581-2.794 22.255z"></path></svg><svg viewBox="0 0 512 512" width="512" height="512" id="insurance" y="3774"><path d="M400.513 407.675a8.343 8.343 0 0 0-10.911-4.489l-72.932 30.422a66.18 66.18 0 0 1-46.226 1.78L99.38 379.024a45.79 45.79 0 0 0-32.806 1.556l-6.788 2.971a8.343 8.343 0 0 0 6.691 15.285l6.796-2.975a29.145 29.145 0 0 1 20.879-.992l171.067 56.366a82.916 82.916 0 0 0 25.954 4.168 82.802 82.802 0 0 0 31.923-6.397l72.928-30.421a8.34 8.34 0 0 0 4.489-10.91z"></path><path d="M508.861 328.574l-.116-.27c-7.508-17.411-26.418-26.822-44.549-22.909 2.297-7.44 1.921-15.37-1.135-22.635-3.446-8.192-9.88-14.541-18.137-17.885a11.296 11.296 0 0 0-.287-.11c-6.784-2.678-14.138-2.974-20.936-1.119V209.56a8.344 8.344 0 0 0-16.688 0v115.511l-73.351 25.666a37.487 37.487 0 0 1-24.636.001l-86.228-30.133v-33.621l82.572 28.236c16.668 5.715 35.221-2.337 42.477-18.33h10.441a8.344 8.344 0 0 0 8.344-8.344V191.76a8.344 8.344 0 0 0-8.344-8.344h-86.773a8.344 8.344 0 0 0-8.344 8.344v33.598l-40.372-15.486v-62.278l92.102-60.989 92.113 60.991v34.154a8.344 8.344 0 0 0 16.688 0v-23.111l22.904 15.165a8.337 8.337 0 0 0 11.563-2.35 8.343 8.343 0 0 0-2.351-11.563l-45.466-30.106V64.939a8.344 8.344 0 0 0-8.344-8.344h-50.062a8.344 8.344 0 0 0-8.344 8.344v20.65l-24.091-15.952a8.343 8.343 0 0 0-9.212 0l-136.305 90.257a8.344 8.344 0 0 0 9.212 13.914l22.905-15.166v44.833l-28.14-10.794a82.796 82.796 0 0 0-3.728-1.363c-29.6-10.17-63.345-5.529-90.264 12.41L3.718 257.193a8.342 8.342 0 0 0-2.317 11.57 8.343 8.343 0 0 0 11.57 2.317l80.262-53.468c22.62-15.074 50.876-19.006 75.6-10.512 1.208.414 2.156.759 3.072 1.121l150.97 57.911c4.483 1.711 8.004 5.092 9.913 9.52 1.97 4.567 1.964 9.573-.023 14.106-3.663 8.397-13.32 12.647-21.989 9.674l-95.77-32.749a32.439 32.439 0 0 0-23.391.908c-9.235 3.983-16.002 11.831-18.567 21.532-4.313 16.294 4.784 33.43 20.717 39.012l109.758 38.356c11.482 4.014 24.14 4.014 35.646-.001l125.839-44.032c11.223-3.931 23.709 1.535 28.443 12.512l.048.112a22.582 22.582 0 0 1 .106 17.451 22.627 22.627 0 0 1-12.319 12.409l-67.196 28.029a8.344 8.344 0 0 0 6.423 15.401l67.196-28.029c9.763-4.074 17.342-11.709 21.342-21.5 3.995-9.78 3.929-20.527-.19-30.269zM360.289 73.282h33.374v45.455l-33.374-22.099V73.282zm-31.453 177.266l-48.979-18.788v-31.656h70.086v74.461a34.278 34.278 0 0 0-1.832-5.52c-3.709-8.601-10.56-15.173-19.275-18.497zM206.11 314.775l-6.837-2.388c-7.76-2.72-12.194-11.061-10.095-18.993 1.248-4.718 4.543-8.537 9.043-10.477a15.775 15.775 0 0 1 7.889-1.196v33.054zm241.627-12.849l-4.281 10.396-19.754 6.912V281.66h-.001c4.393-2.746 9.922-3.315 14.822-1.367.078.031.161.063.25.096a16.369 16.369 0 0 1 8.908 8.844 16.437 16.437 0 0 1 .056 12.693z"></path></svg><svg viewBox="0 0 490.4 490.4" width="490.4" height="490.4" id="interface" y="4286"><path d="M245.2 490.4c135.2 0 245.2-110 245.2-245.2S380.4 0 245.2 0 0 110 0 245.2s110 245.2 245.2 245.2zm0-465.9c121.7 0 220.7 99 220.7 220.7s-99 220.7-220.7 220.7-220.7-99-220.7-220.7 99-220.7 220.7-220.7z"></path><path d="M206.5 349.6c2.3 2.3 5.4 3.6 8.7 3.6 3.2 0 6.3-1.3 8.6-3.6l147.5-146.7c2.3-2.3 3.6-5.4 3.6-8.7 0-3.2-1.3-6.4-3.6-8.7l-44.6-44.8c-4.8-4.8-12.5-4.8-17.3-.1l-94 93.5-34.2-34.4c-2.3-2.3-5.4-3.6-8.7-3.6-3.2 0-6.3 1.3-8.6 3.6l-44.8 44.6c-2.3 2.3-3.6 5.4-3.6 8.7 0 3.2 1.3 6.4 3.6 8.7l87.4 87.9zm-34-123.9l34.3 34.5c4.8 4.8 12.5 4.8 17.3.1l94-93.5 27.3 27.4-130.1 129.4-70.2-70.6 27.4-27.3z"></path></svg><svg viewBox="0 0 490.2 490.2" width="490.2" height="490.2" id="like" y="4777"><path d="M490.1 234.464c0-37.6-30.6-68.3-68.3-68.3H316.2v-76.1c0-32.2-9.4-55.4-28-69-29.4-21.6-69.8-9.3-71.5-8.7-5.1 1.6-8.6 6.3-8.6 11.7v85.5c0 67.3-78.1 90.2-81.4 91.2-1 .3-1.9.6-2.7 1.1-5.8-11.6-17.8-19.6-31.6-19.6H35.2c-19.4 0-35.2 15.8-35.2 35.2v207.9c0 19.4 15.8 35.2 35.2 35.2h33.1c6.8 0 12.3-5.5 12.3-12.3s-5.6-12.2-12.3-12.2H35.2c-5.9 0-10.7-4.8-10.7-10.7v-207.9c0-5.9 4.8-10.7 10.7-10.7h57.3c5.9 0 10.7 4.8 10.7 10.7v196.1c0 37.6 30.6 68.3 68.3 68.3h209.2c46.4 0 75.9-24.3 81.1-66.3l28.2-177c.1-.6.2-1.3.2-1.9v-2.2h-.1zm-24.5 1.1l-28.1 176.5c-3.7 30-22.8 45.3-56.8 45.3H171.5c-24.1 0-43.8-19.6-43.8-43.8v-189.1c1.8.4 3.7.3 5.6-.2 4.1-1.1 99.3-28.7 99.3-114.8v-75.6c10.4-1.6 28.2-2.5 41.1 6.9 11.9 8.8 18 25.3 18 49.3v88.4c0 6.8 5.5 12.3 12.3 12.3h117.9c24.1 0 43.8 19.6 43.8 43.8v1h-.1z"></path></svg><svg viewBox="0 0 451 451" width="451" height="451" id="magnifying-glass" y="5268"><path d="M447.05 428l-109.6-109.6c29.4-33.8 47.2-77.9 47.2-126.1C384.65 86.2 298.35 0 192.35 0 86.25 0 .05 86.3.05 192.3s86.3 192.3 192.3 192.3c48.2 0 92.3-17.8 126.1-47.2L428.05 447c2.6 2.6 6.1 4 9.5 4s6.9-1.3 9.5-4c5.2-5.2 5.2-13.8 0-19zM26.95 192.3c0-91.2 74.2-165.3 165.3-165.3 91.2 0 165.3 74.2 165.3 165.3s-74.1 165.4-165.3 165.4c-91.1 0-165.3-74.2-165.3-165.4z"></path></svg><svg viewBox="0 0 483.3 483.3" width="483.3" height="483.3" id="mail" y="5719"><path d="M424.3 57.75H59.1c-32.6 0-59.1 26.5-59.1 59.1v249.6c0 32.6 26.5 59.1 59.1 59.1h365.1c32.6 0 59.1-26.5 59.1-59.1v-249.5c.1-32.6-26.4-59.2-59-59.2zm32.1 308.7c0 17.7-14.4 32.1-32.1 32.1H59.1c-17.7 0-32.1-14.4-32.1-32.1v-249.5c0-17.7 14.4-32.1 32.1-32.1h365.1c17.7 0 32.1 14.4 32.1 32.1v249.5h.1z"></path><path d="M304.8 238.55l118.2-106c5.5-5 6-13.5 1-19.1-5-5.5-13.5-6-19.1-1l-163 146.3-31.8-28.4c-.1-.1-.2-.2-.2-.3-.7-.7-1.4-1.3-2.2-1.9L78.3 112.35c-5.6-5-14.1-4.5-19.1 1.1-5 5.6-4.5 14.1 1.1 19.1l119.6 106.9-119.1 111.5c-5.4 5.1-5.7 13.6-.6 19.1 2.7 2.8 6.3 4.3 9.9 4.3 3.3 0 6.6-1.2 9.2-3.6l120.9-113.1 32.8 29.3c2.6 2.3 5.8 3.4 9 3.4s6.5-1.2 9-3.5l33.7-30.2 120.2 114.2c2.6 2.5 6 3.7 9.3 3.7 3.6 0 7.1-1.4 9.8-4.2 5.1-5.4 4.9-14-.5-19.1l-118.7-112.7z"></path></svg><svg width="459" height="459" viewBox="0 0 459 459" id="menu" y="6203"><path d="M0 382.5h459v-51H0v51zM0 255h459v-51H0v51zM0 76.5v51h459v-51H0z"></path></svg><svg viewBox="0 0 473.806 473.806" width="473.806" height="473.806" id="phone-call" y="6662"><path d="M374.456 293.506c-9.7-10.1-21.4-15.5-33.8-15.5-12.3 0-24.1 5.3-34.2 15.4l-31.6 31.5c-2.6-1.4-5.2-2.7-7.7-4-3.6-1.8-7-3.5-9.9-5.3-29.6-18.8-56.5-43.3-82.3-75-12.5-15.8-20.9-29.1-27-42.6 8.2-7.5 15.8-15.3 23.2-22.8 2.8-2.8 5.6-5.7 8.4-8.5 21-21 21-48.2 0-69.2l-27.3-27.3c-3.1-3.1-6.3-6.3-9.3-9.5-6-6.2-12.3-12.6-18.8-18.6-9.7-9.6-21.3-14.7-33.5-14.7s-24 5.1-34 14.7l-.2.2-34 34.3c-12.8 12.8-20.1 28.4-21.7 46.5-2.4 29.2 6.2 56.4 12.8 74.2 16.2 43.7 40.4 84.2 76.5 127.6 43.8 52.3 96.5 93.6 156.7 122.7 23 10.9 53.7 23.8 88 26 2.1.1 4.3.2 6.3.2 23.1 0 42.5-8.3 57.7-24.8.1-.2.3-.3.4-.5 5.2-6.3 11.2-12 17.5-18.1 4.3-4.1 8.7-8.4 13-12.9 9.9-10.3 15.1-22.3 15.1-34.6 0-12.4-5.3-24.3-15.4-34.3l-54.9-55.1zm35.8 105.3c-.1 0-.1.1 0 0-3.9 4.2-7.9 8-12.2 12.2-6.5 6.2-13.1 12.7-19.3 20-10.1 10.8-22 15.9-37.6 15.9-1.5 0-3.1 0-4.6-.1-29.7-1.9-57.3-13.5-78-23.4-56.6-27.4-106.3-66.3-147.6-115.6-34.1-41.1-56.9-79.1-72-119.9-9.3-24.9-12.7-44.3-11.2-62.6 1-11.7 5.5-21.4 13.8-29.7l34.1-34.1c4.9-4.6 10.1-7.1 15.2-7.1 6.3 0 11.4 3.8 14.6 7l.3.3c6.1 5.7 11.9 11.6 18 17.9 3.1 3.2 6.3 6.4 9.5 9.7l27.3 27.3c10.6 10.6 10.6 20.4 0 31-2.9 2.9-5.7 5.8-8.6 8.6-8.4 8.6-16.4 16.6-25.1 24.4-.2.2-.4.3-.5.5-8.6 8.6-7 17-5.2 22.7l.3.9c7.1 17.2 17.1 33.4 32.3 52.7l.1.1c27.6 34 56.7 60.5 88.8 80.8 4.1 2.6 8.3 4.7 12.3 6.7 3.6 1.8 7 3.5 9.9 5.3.4.2.8.5 1.2.7 3.4 1.7 6.6 2.5 9.9 2.5 8.3 0 13.5-5.2 15.2-6.9l34.2-34.2c3.4-3.4 8.8-7.5 15.1-7.5 6.2 0 11.3 3.9 14.4 7.3l.2.2 55.1 55.1c10.3 10.2 10.3 20.7.1 31.3zm-154.2-286.1c26.2 4.4 50 16.8 69 35.8s31.3 42.8 35.8 69c1.1 6.6 6.8 11.2 13.3 11.2.8 0 1.5-.1 2.3-.2 7.4-1.2 12.3-8.2 11.1-15.6-5.4-31.7-20.4-60.6-43.3-83.5s-51.8-37.9-83.5-43.3c-7.4-1.2-14.3 3.7-15.6 11s3.5 14.4 10.9 15.6zm217.2 96.3c-8.9-52.2-33.5-99.7-71.3-137.5s-85.3-62.4-137.5-71.3c-7.3-1.3-14.2 3.7-15.5 11-1.2 7.4 3.7 14.3 11.1 15.6 46.6 7.9 89.1 30 122.9 63.7 33.8 33.8 55.8 76.3 63.7 122.9 1.1 6.6 6.8 11.2 13.3 11.2.8 0 1.5-.1 2.3-.2 7.3-1.1 12.3-8.1 11-15.4z"></path></svg><svg viewBox="0 0 477 477" width="477" height="477" id="placeholder" y="7136"><path d="M238.4 0C133 0 47.2 85.8 47.2 191.2c0 12 1.1 24.1 3.4 35.9.1.7.5 2.8 1.3 6.4 2.9 12.9 7.2 25.6 12.8 37.7 20.6 48.5 65.9 123 165.3 202.8 2.5 2 5.5 3 8.5 3s6-1 8.5-3c99.3-79.8 144.7-154.3 165.3-202.8 5.6-12.1 9.9-24.7 12.8-37.7.8-3.6 1.2-5.7 1.3-6.4 2.2-11.8 3.4-23.9 3.4-35.9C429.6 85.8 343.8 0 238.4 0zm161.2 222.4c0 .2-.1.4-.1.6-.1.5-.4 2-.9 4.3v.2c-2.5 11.2-6.2 22.1-11.1 32.6-.1.1-.1.3-.2.4-18.7 44.3-59.7 111.9-148.9 185.6-89.2-73.7-130.2-141.3-148.9-185.6-.1-.1-.1-.3-.2-.4-4.8-10.4-8.5-21.4-11.1-32.6v-.2c-.6-2.3-.8-3.8-.9-4.3 0-.2-.1-.4-.1-.7-2-10.3-3-20.7-3-31.2 0-90.5 73.7-164.2 164.2-164.2s164.2 73.7 164.2 164.2c0 10.6-1 21.1-3 31.3z"></path><path d="M238.4 71.9c-66.9 0-121.4 54.5-121.4 121.4s54.5 121.4 121.4 121.4 121.4-54.5 121.4-121.4S305.3 71.9 238.4 71.9zm0 215.8c-52.1 0-94.4-42.4-94.4-94.4s42.4-94.4 94.4-94.4 94.4 42.4 94.4 94.4-42.3 94.4-94.4 94.4z"></path></svg><svg viewBox="0 0 302.262 302.262" width="302.262" height="302.262" id="prize" y="7613"><path d="M260.244 113.461a31.916 31.916 0 0 0-3.576-29.447l-4.204-6.092a17.968 17.968 0 0 1-3.04-8.016l-.892-7.347a31.915 31.915 0 0 0-16.852-24.413l-6.552-3.439a17.994 17.994 0 0 1-6.419-5.686l-4.203-6.09A31.915 31.915 0 0 0 188.24 9.145h-7.4c-2.889 0-5.768-.71-8.326-2.052l-6.552-3.439a31.915 31.915 0 0 0-29.664 0l-6.552 3.439a17.998 17.998 0 0 1-8.326 2.052h-7.4a31.917 31.917 0 0 0-26.266 13.786l-4.203 6.089a17.996 17.996 0 0 1-6.419 5.687l-6.552 3.439A31.917 31.917 0 0 0 53.728 62.56l-.892 7.345a17.975 17.975 0 0 1-3.041 8.018l-4.203 6.09a31.918 31.918 0 0 0-3.576 29.448l2.624 6.917a17.986 17.986 0 0 1 1.033 8.514l-.892 7.345a31.91 31.91 0 0 0 10.52 27.736l5.539 4.907a17.984 17.984 0 0 1 4.871 7.057l2.624 6.918a31.907 31.907 0 0 0 14.748 16.797l-28.909 70.519a7 7 0 0 0 9.05 9.165l31.884-12.604 13.862 31.357a7 7 0 0 0 6.401 4.17h.096a7 7 0 0 0 6.382-4.344l29.28-71.424 29.28 71.424a7 7 0 0 0 6.382 4.344h.096a7 7 0 0 0 6.401-4.17l13.862-31.357 31.884 12.604a7 7 0 0 0 9.05-9.165l-28.909-70.519a31.907 31.907 0 0 0 14.748-16.797l2.624-6.918a17.987 17.987 0 0 1 4.871-7.058l5.539-4.907a31.914 31.914 0 0 0 10.52-27.735l-.892-7.347a17.989 17.989 0 0 1 1.032-8.512l2.627-6.917zm-22.568 40.034l-5.539 4.907a32.031 32.031 0 0 0-8.678 12.572l-2.624 6.919a17.915 17.915 0 0 1-12.465 11.042l-7.185 1.771a32.03 32.03 0 0 0-13.525 7.099l-5.539 4.907a17.916 17.916 0 0 1-16.168 3.984l-7.185-1.77a32.04 32.04 0 0 0-15.275 0l-7.186 1.771a17.912 17.912 0 0 1-16.167-3.985l-5.539-4.907a32.047 32.047 0 0 0-13.525-7.099l-7.186-1.771a17.916 17.916 0 0 1-12.464-11.042l-2.624-6.919a32.02 32.02 0 0 0-8.678-12.571l-5.539-4.907a17.914 17.914 0 0 1-5.904-15.569l.892-7.346a32.06 32.06 0 0 0-1.841-15.165l-2.625-6.918a17.916 17.916 0 0 1 2.009-16.531l4.201-6.089a32.029 32.029 0 0 0 5.419-14.285l.892-7.345a17.916 17.916 0 0 1 9.459-13.705l6.552-3.439a32.042 32.042 0 0 0 11.435-10.13l4.203-6.089a17.915 17.915 0 0 1 14.744-7.739h7.4a32.04 32.04 0 0 0 14.832-3.656l6.552-3.439a17.92 17.92 0 0 1 16.652 0l6.552 3.439a32.044 32.044 0 0 0 14.832 3.656h7.4a17.916 17.916 0 0 1 14.744 7.738l4.203 6.091a32.049 32.049 0 0 0 11.435 10.129l6.552 3.439a17.916 17.916 0 0 1 9.459 13.704l.892 7.346a32.031 32.031 0 0 0 5.418 14.283l4.203 6.091a17.915 17.915 0 0 1 2.008 16.529l-2.626 6.92a32.065 32.065 0 0 0-1.84 15.163l.892 7.347a17.916 17.916 0 0 1-5.905 15.569zm-31.633 97.747a7 7 0 0 0-8.976 3.68L187.13 277.4l-23.305-56.848a31.893 31.893 0 0 0 27.579-7.361l5.539-4.907a17.974 17.974 0 0 1 7.594-3.985l1.284-.317 23.078 56.294-22.856-9.034zm-100.849 3.68a7 7 0 0 0-8.976-3.68l-22.855 9.035 23.078-56.294 1.284.316a17.985 17.985 0 0 1 7.594 3.985l5.539 4.906a31.903 31.903 0 0 0 21.164 8.027c2.137 0 4.285-.228 6.415-.666L115.131 277.4l-9.937-22.478z"></path><path d="M151.131 187.376c42.329 0 76.767-34.438 76.767-76.767s-34.438-76.767-76.767-76.767-76.767 34.438-76.767 76.767 34.438 76.767 76.767 76.767zm0-139.533c34.609 0 62.767 28.157 62.767 62.767s-28.157 62.767-62.767 62.767-62.767-28.157-62.767-62.767 28.158-62.767 62.767-62.767z"></path><path d="M118.476 150.652h65.311a7 7 0 0 0 7-7v-41.46a7 7 0 0 0-2.785-5.589l-32.655-24.625a7 7 0 0 0-8.43 0l-32.655 24.625a7 7 0 0 0-2.785 5.589v41.46a6.998 6.998 0 0 0 6.999 7zm7-44.972l25.655-19.347 25.655 19.347v30.971h-18.188v-13.923a3.308 3.308 0 0 0-3.308-3.308h-8.318a3.308 3.308 0 0 0-3.308 3.308v13.923h-18.188V105.68z"></path></svg><svg viewBox="0 0 512 512" width="512" height="512" id="settings" y="7916"><path d="M438.973 411.718c-14.598 0-26.475 11.876-26.475 26.475 0 14.598 11.876 26.474 26.475 26.474 14.598 0 26.474-11.876 26.474-26.474s-11.876-26.475-26.474-26.475zm-.001 37.259c-5.946 0-10.784-4.838-10.784-10.784 0-5.946 4.838-10.784 10.784-10.784 5.946 0 10.784 4.838 10.784 10.784s-4.838 10.784-10.784 10.784z"></path><path d="M510.303 436.82c-.5-19.383-8.704-37.211-23.102-50.198L329.249 244.157l139.658-139.658a14.816 14.816 0 0 0 2.7-1.077L501.85 87.46c4.178-2.206 6.98-6.152 7.685-10.823.706-4.672-.805-9.268-4.146-12.612l-34.052-34.051c-3.342-3.341-7.935-4.852-12.611-4.146-4.671.705-8.616 3.507-10.823 7.686L431.94 63.755a14.882 14.882 0 0 0-1.099 2.723l-65.92 65.92a7.846 7.846 0 0 0 11.096 11.096l60.492-60.493 15.853 15.853-154.7 154.7-15.853-15.853 67.525-67.524a7.846 7.846 0 0 0-11.096-11.096l-48.994 48.994-53.322-48.094a120.384 120.384 0 0 0-28.625-124.725C173.706 1.665 123.314-9.04 78.916 7.987a7.844 7.844 0 0 0-2.738 12.873l61.592 61.593a9.586 9.586 0 0 1 2.827 6.822c0 2.577-1.004 5-2.827 6.823l-39.999 39.999a9.582 9.582 0 0 1-6.822 2.827c-2.577 0-5-1.003-6.823-2.827L22.533 74.504A7.847 7.847 0 0 0 9.66 77.242c-17.027 44.396-6.322 94.788 27.27 128.381 31.991 31.99 79.468 43.253 122.299 29.414l41.227 45.083a42.275 42.275 0 0 1-7.734 10.658c-11.884 11.884-29.695 15.628-45.38 9.54a7.842 7.842 0 0 0-8.388 1.765l-96.059 96.059c-26.004 26.005-26.004 68.317 0 94.32C55.494 505.063 72.243 512 90.058 512c17.814 0 34.564-6.937 47.161-19.534l96.059-96.058a7.847 7.847 0 0 0 1.765-8.388c-6.089-15.684-2.345-33.497 9.538-45.381 11.886-11.884 29.698-15.628 45.382-9.54a7.844 7.844 0 0 0 8.388-1.765l18.12-18.12c5.456-5.456 8.46-12.711 8.46-20.426 0-7.715-3.004-14.97-8.46-20.426l-7.713-7.713 9.383-9.383 158.552 143.007c11.172 10.077 17.539 23.911 17.926 38.951.387 15.04-5.259 29.183-15.898 39.821-10.588 10.59-24.695 16.226-39.636 15.903-14.971-.334-28.781-6.604-38.886-17.655L282.31 346.378a7.846 7.846 0 0 0-11.579 10.589l117.888 128.915c13.024 14.241 30.822 22.321 50.115 22.752.54.012 1.079.018 1.618.018 18.688 0 36.199-7.249 49.464-20.512 13.71-13.711 20.985-31.937 20.487-51.32zM446.149 70.45l15.019-28.454 32.199 32.199-28.454 15.019-18.764-18.764zM167.324 220.639a7.847 7.847 0 0 0-8.532-2.056c-38.363 14.31-81.845 4.868-110.768-24.052-26.262-26.263-36.438-64.337-27.471-99.815l52.477 52.477c4.787 4.786 11.15 7.421 17.918 7.421s13.131-2.635 17.917-7.421l39.999-39.999c4.786-4.787 7.421-11.15 7.421-17.918s-2.635-13.131-7.421-17.917L96.388 18.88c35.475-8.971 73.553 1.208 99.814 27.471 29.659 29.657 38.773 74.003 23.222 112.978a7.843 7.843 0 0 0 2.032 8.733l56.679 51.122-7.422 7.422-7.713-7.713c-5.456-5.456-12.711-8.46-20.426-8.46-7.715 0-14.97 3.004-20.426 8.46l-18.12 18.12a7.847 7.847 0 0 0-1.765 8.388c2.087 5.375 2.992 10.997 2.837 16.548l-37.776-41.31zm138.05 81.48l-14.682 14.683c-20.192-5.821-42.164-.299-57.205 14.741h-.001c-15.04 15.041-20.563 37.01-14.74 57.206l-92.622 92.62c-9.634 9.634-22.442 14.94-36.065 14.94s-26.433-5.306-36.065-14.94c-19.887-19.886-19.887-52.244 0-72.131l92.621-92.621c20.194 5.824 42.163.298 57.205-14.742 15.04-15.041 20.564-37.01 14.741-57.205l14.683-14.682c5.144-5.146 13.517-5.146 18.661 0l13.261 13.261 26.947 26.947 13.261 13.261c5.146 5.146 5.146 13.518 0 18.662z"></path><path d="M162.326 346.249a7.848 7.848 0 0 0-11.096 0l-74.318 74.318a7.846 7.846 0 0 0 11.096 11.096l74.318-74.318a7.848 7.848 0 0 0 0-11.096zm27.459 27.459a7.848 7.848 0 0 0-11.096 0l-74.318 74.317a7.846 7.846 0 0 0 11.096 11.096l74.318-74.317a7.846 7.846 0 0 0 0-11.096z"></path></svg><svg viewBox="0 0 481.6 481.6" width="481.6" height="481.6" id="share" y="8428"><path d="M381.6 309.4c-27.7 0-52.4 13.2-68.2 33.6l-132.3-73.9c3.1-8.9 4.8-18.5 4.8-28.4 0-10-1.7-19.5-4.9-28.5l132.2-73.8c15.7 20.5 40.5 33.8 68.3 33.8 47.4 0 86.1-38.6 86.1-86.1S429 0 381.5 0s-86.1 38.6-86.1 86.1c0 10 1.7 19.6 4.9 28.5l-132.1 73.8c-15.7-20.6-40.5-33.8-68.3-33.8-47.4 0-86.1 38.6-86.1 86.1s38.7 86.1 86.2 86.1c27.8 0 52.6-13.3 68.4-33.9l132.2 73.9c-3.2 9-5 18.7-5 28.7 0 47.4 38.6 86.1 86.1 86.1s86.1-38.6 86.1-86.1-38.7-86.1-86.2-86.1zm0-282.3c32.6 0 59.1 26.5 59.1 59.1s-26.5 59.1-59.1 59.1-59.1-26.5-59.1-59.1 26.6-59.1 59.1-59.1zM100 299.8c-32.6 0-59.1-26.5-59.1-59.1s26.5-59.1 59.1-59.1 59.1 26.5 59.1 59.1-26.6 59.1-59.1 59.1zm281.6 154.7c-32.6 0-59.1-26.5-59.1-59.1s26.5-59.1 59.1-59.1 59.1 26.5 59.1 59.1-26.5 59.1-59.1 59.1z"></path></svg><svg viewBox="0 0 511.999 511.999" width="511.999" height="511.999" id="sketch" y="8910"><path d="M453.034 361.322a7.514 7.514 0 0 0-8.19 1.628l-82.126 82.126a7.514 7.514 0 0 0 5.315 12.829h82.126a7.514 7.514 0 0 0 7.515-7.515v-82.126a7.517 7.517 0 0 0-4.64-6.942zm-66.861 81.554l56.469-56.469v56.469h-56.469z"></path><path d="M507.361 240.867a7.514 7.514 0 0 0-8.19 1.628l-22.507 22.507V111.971a7.515 7.515 0 0 0-7.515-7.515h-57.741l20.96-20.96.009-.01 20.196-20.196c4.327-4.327 6.71-10.083 6.71-16.203s-2.383-11.874-6.71-16.203L429.219 7.53C424.892 3.203 419.136.82 413.016.82s-11.875 2.383-16.203 6.71l-20.206 20.206-24.416 24.416-52.303 52.303H66.62V30.11a7.515 7.515 0 0 0-7.515-7.515C26.515 22.597 0 49.11 0 81.702v319.186c0 .555.064 1.095.178 1.615 1.038 13.829 7.021 26.678 17.02 36.432C27.886 449.359 41.995 455.1 56.927 455.1h229.638l-43.249 43.249a7.516 7.516 0 0 0 5.314 12.829h255.855a7.515 7.515 0 0 0 7.515-7.515V247.81a7.517 7.517 0 0 0-4.639-6.943zM407.443 18.159c3.072-3.074 8.077-3.074 11.149 0l23.355 23.355c3.074 3.073 3.074 8.076 0 11.15l-14.891 14.892-34.506-34.505 14.893-14.892zm-25.521 25.52l34.505 34.504-13.789 13.789-34.503-34.504 13.787-13.789zm115.05 288.573h-13.865a7.514 7.514 0 0 0-7.515 7.515 7.514 7.514 0 0 0 7.515 7.515h13.865v22.646h-13.865c-4.151 0-7.515 3.364-7.515 7.515s3.364 7.515 7.515 7.515h13.865v22.645h-13.865a7.514 7.514 0 0 0-7.515 7.515 7.514 7.514 0 0 0 7.515 7.515h13.865v22.646h-13.865a7.515 7.515 0 1 0 0 15.03h13.865v35.842h-230.2l75.908-75.907a7.515 7.515 0 0 0 0-10.628 7.572 7.572 0 0 0-1.078-.889 7.514 7.514 0 0 0-9.551.889l-30.456 30.456H56.928c-22.792 0-41.14-17.794-41.862-40.545a44.19 44.19 0 0 1 .332-4.244l.003-.024c.084-.665.185-1.327.3-1.985l.04-.225a43.474 43.474 0 0 1 1.057-4.494c.11-.382.224-.763.345-1.14.121-.377.25-.75.381-1.123.091-.261.181-.522.279-.781.183-.492.377-.979.577-1.462.057-.139.113-.28.172-.419.257-.6.524-1.193.806-1.779l.035-.075c5.878-12.164 17.183-21.233 30.75-24.047l.114-.025c.622-.127 1.25-.236 1.882-.337.105-.017.21-.038.317-.054a44.641 44.641 0 0 1 1.725-.22c.162-.018.323-.043.486-.059a44.442 44.442 0 0 1 1.681-.128c.178-.011.356-.03.534-.039a44.298 44.298 0 0 1 2.223-.056 7.515 7.515 0 0 0 7.515-7.515v-54.489a7.515 7.515 0 1 0-15.03 0v47.447c-12.69 1.605-24.469 7.265-33.757 16.335a60.423 60.423 0 0 0-2.805 2.954V81.702c0-21.741 15.826-39.858 36.561-43.436v226.483a7.516 7.516 0 0 0 15.03 0V119.486h218.24l-41.544 41.544a7.515 7.515 0 0 0 10.627 10.628l54.373-54.373.005-.005 49.185-49.185 34.503 34.505-4.048 4.048-.01.009-151.528 151.53-34.504-34.504 29.868-29.868a7.515 7.515 0 0 0-10.627-10.628l-35.183 35.182a7.546 7.546 0 0 0-.529.591c-.055.068-.104.141-.156.212-.106.141-.21.283-.307.431-.055.086-.105.174-.157.263a6.301 6.301 0 0 0-.371.714 7.526 7.526 0 0 0-.186.447c-.02.053-.046.103-.065.156l-14.641 41.475-9.982 28.279a7.599 7.599 0 0 0-.298 1.143h-24.992a7.515 7.515 0 1 0 0 15.03h208.114a7.514 7.514 0 0 0 7.515-7.515 7.514 7.514 0 0 0-7.515-7.515H193.093l45.83-16.178c.038-.014.074-.033.112-.047.178-.066.353-.14.526-.219.069-.032.138-.062.205-.095.18-.09.357-.189.531-.295.056-.034.114-.065.169-.1.181-.116.357-.243.53-.377.043-.033.088-.062.13-.096.209-.168.414-.349.608-.543l154.644-154.643h65.255v160.546L354.137 387.53a7.515 7.515 0 1 0 10.628 10.628l.003-.003L496.972 265.95v66.302zm-274.295-66.556l-21.526 7.599-14.342-14.342 7.599-21.526 28.269 28.269z"></path></svg><svg viewBox="0 0 512 512" width="512" height="512" id="soc-facebook" y="9422"><path d="M134.941 272.691h56.123v231.051a8.256 8.256 0 0 0 8.258 8.258h95.159a8.256 8.256 0 0 0 8.258-8.258V273.78h64.519a8.26 8.26 0 0 0 8.204-7.315l9.799-85.061a8.259 8.259 0 0 0-8.202-9.203h-74.316V118.88c0-16.073 8.654-24.224 25.726-24.224h48.59a8.258 8.258 0 0 0 8.258-8.258V8.319a8.256 8.256 0 0 0-8.258-8.258h-66.965A65.863 65.863 0 0 0 307.027 0c-11.619 0-52.006 2.281-83.909 31.63-35.348 32.524-30.434 71.465-29.26 78.217v62.352H134.94a8.256 8.256 0 0 0-8.258 8.258v83.975a8.26 8.26 0 0 0 8.259 8.259z"></path></svg><svg width="96.669" height="96.669" viewBox="0 0 96.669 96.669" id="soc-google" y="9934"><path d="M50.91 55.189l-4.533-3.522c-1.38-1.144-3.27-2.656-3.27-5.422 0-2.778 1.889-4.544 3.527-6.18 5.279-4.157 10.557-8.581 10.557-17.903 0-9.586-6.031-14.629-8.923-17.022h7.795L64.244 0H39.459C32.658 0 22.856 1.608 15.68 7.533c-5.408 4.666-8.046 11.099-8.046 16.892 0 9.831 7.548 19.798 20.88 19.798 1.259 0 2.636-.124 4.022-.252-.623 1.515-1.252 2.777-1.252 4.917 0 3.905 2.006 6.299 3.774 8.567-5.663.39-16.237 1.018-24.033 5.809-7.424 4.415-9.684 10.84-9.684 15.377 0 9.334 8.8 18.028 27.045 18.028 21.636 0 33.089-11.971 33.089-23.823.002-8.707-5.028-12.992-10.565-17.657zM34.431 40.691c-10.824 0-15.727-13.992-15.727-22.434 0-3.288.623-6.682 2.763-9.333C23.486 6.4 27 4.762 30.281 4.762c10.434 0 15.846 14.118 15.846 23.197 0 2.271-.251 6.296-3.144 9.207-2.023 2.021-5.409 3.525-8.552 3.525zm.124 50.696c-13.46 0-22.139-6.438-22.139-15.392 0-8.949 8.048-11.978 10.816-12.979 5.281-1.777 12.076-2.024 13.21-2.024 1.258 0 1.887 0 2.889.126 9.568 6.81 13.721 10.203 13.721 16.65.001 7.805-6.417 13.619-18.497 13.619zm48.124-50.888V27.894h-6.224v12.605H63.869v6.294h12.586v12.684h6.224V46.793h12.649v-6.294z"></path></svg><svg width="430.117" height="430.117" viewBox="0 0 430.117 430.117" id="soc-in" y="10031"><path d="M430.117 261.543V420.56h-92.188V272.193c0-37.271-13.334-62.707-46.703-62.707-25.473 0-40.632 17.142-47.301 33.724-2.432 5.928-3.058 14.179-3.058 22.477V420.56h-92.219s1.242-251.285 0-277.32h92.21v39.309c-.187.294-.43.611-.606.896h.606v-.896c12.251-18.869 34.13-45.824 83.102-45.824 60.673-.001 106.157 39.636 106.157 124.818zM52.183 9.558C20.635 9.558 0 30.251 0 57.463c0 26.619 20.038 47.94 50.959 47.94h.616c32.159 0 52.159-21.317 52.159-47.94-.606-27.212-20-47.905-51.551-47.905zM5.477 420.56h92.184V143.24H5.477v277.32z"></path></svg><svg width="438.536" height="438.536" viewBox="0 0 438.536 438.536" id="soc-instagram" y="10462"><path d="M421.981 16.562C410.941 5.519 397.711 0 382.298 0H56.248C40.83 0 27.604 5.521 16.561 16.562 5.52 27.6.001 40.828.001 56.243V382.29c0 15.413 5.518 28.644 16.56 39.683 11.043 11.04 24.272 16.563 39.687 16.563h326.046c15.41 0 28.644-5.523 39.684-16.563 11.043-11.039 16.557-24.27 16.557-39.683V56.243c-.001-15.418-5.514-28.639-16.554-39.681zM157.462 158.025c17.224-16.652 37.924-24.982 62.097-24.982 24.36 0 45.153 8.33 62.381 24.982 17.228 16.655 25.837 36.785 25.837 60.386 0 23.598-8.609 43.729-25.837 60.379-17.228 16.659-38.014 24.988-62.381 24.988-24.172 0-44.87-8.336-62.097-24.988-17.228-16.652-25.841-36.781-25.841-60.379 0-23.601 8.613-43.73 25.841-60.386zm231.403 212.564c0 4.945-1.718 9.083-5.141 12.416-3.433 3.33-7.519 4.996-12.282 4.996h-305.2c-4.948 0-9.091-1.666-12.419-4.996-3.333-3.326-4.998-7.471-4.998-12.416V185.575H89.08c-3.805 11.993-5.708 24.462-5.708 37.402 0 36.553 13.322 67.715 39.969 93.511 26.65 25.786 58.721 38.685 96.217 38.685 24.744 0 47.583-5.903 68.527-17.703 20.937-11.807 37.486-27.839 49.676-48.112 12.183-20.272 18.274-42.4 18.274-66.38 0-12.94-1.91-25.406-5.715-37.402h38.547V370.59h-.002zm0-254.963c0 5.52-1.903 10.184-5.716 13.99-3.805 3.809-8.466 5.711-13.989 5.711h-49.676c-5.517 0-10.185-1.903-13.99-5.711-3.806-3.806-5.708-8.47-5.708-13.99V68.522c0-5.33 1.902-9.945 5.708-13.848 3.806-3.901 8.474-5.854 13.99-5.854h49.676c5.523 0 10.185 1.952 13.989 5.854 3.812 3.903 5.716 8.518 5.716 13.848v47.104z"></path></svg><svg width="95.481" height="95.481" viewBox="0 0 95.481 95.481" id="soc-ok" y="10901"><path d="M43.041 67.254c-7.402-.772-14.076-2.595-19.79-7.064-.709-.556-1.441-1.092-2.088-1.713-2.501-2.402-2.753-5.153-.774-7.988 1.693-2.426 4.535-3.075 7.489-1.682.572.27 1.117.607 1.639.969 10.649 7.317 25.278 7.519 35.967.329 1.059-.812 2.191-1.474 3.503-1.812 2.551-.655 4.93.282 6.299 2.514 1.564 2.549 1.544 5.037-.383 7.016-2.956 3.034-6.511 5.229-10.461 6.761-3.735 1.448-7.826 2.177-11.875 2.661.611.665.899.992 1.281 1.376 5.498 5.524 11.02 11.025 16.5 16.566 1.867 1.888 2.257 4.229 1.229 6.425-1.124 2.4-3.64 3.979-6.107 3.81-1.563-.108-2.782-.886-3.865-1.977-4.149-4.175-8.376-8.273-12.441-12.527-1.183-1.237-1.752-1.003-2.796.071-4.174 4.297-8.416 8.528-12.683 12.735-1.916 1.889-4.196 2.229-6.418 1.15-2.362-1.145-3.865-3.556-3.749-5.979.08-1.639.886-2.891 2.011-4.014 5.441-5.433 10.867-10.88 16.295-16.322.359-.362.694-.746 1.217-1.305z"></path><path d="M47.55 48.329c-13.205-.045-24.033-10.992-23.956-24.218C23.67 10.739 34.505-.037 47.84 0c13.362.036 24.087 10.967 24.02 24.478-.068 13.199-10.971 23.897-24.31 23.851zm12.001-24.186c-.023-6.567-5.253-11.795-11.807-11.801-6.609-.007-11.886 5.316-11.835 11.943.049 6.542 5.324 11.733 11.896 11.709 6.552-.023 11.768-5.285 11.746-11.851z"></path></svg><svg viewBox="0 0 410.155 410.155" width="410.155" height="410.155" id="soc-twitter" y="10997"><path d="M403.632 74.18a162.414 162.414 0 0 1-28.28 9.537 88.177 88.177 0 0 0 23.275-37.067c1.295-4.051-3.105-7.554-6.763-5.385a163.188 163.188 0 0 1-43.235 17.862 11.02 11.02 0 0 1-2.702.336c-2.766 0-5.455-1.027-7.57-2.891-16.156-14.239-36.935-22.081-58.508-22.081-9.335 0-18.76 1.455-28.014 4.325-28.672 8.893-50.795 32.544-57.736 61.724-2.604 10.945-3.309 21.9-2.097 32.56a3.166 3.166 0 0 1-.797 2.481 3.278 3.278 0 0 1-2.753 1.091c-62.762-5.831-119.358-36.068-159.363-85.14-2.04-2.503-5.952-2.196-7.578.593-7.834 13.44-11.974 28.812-11.974 44.454 0 23.972 9.631 46.563 26.36 63.032a79.24 79.24 0 0 1-20.169-7.808c-3.06-1.7-6.825.485-6.868 3.985-.438 35.612 20.412 67.3 51.646 81.569a79.567 79.567 0 0 1-16.786-1.399c-3.446-.658-6.341 2.611-5.271 5.952 10.138 31.651 37.39 54.981 70.002 60.278-27.066 18.169-58.585 27.753-91.39 27.753l-10.227-.006c-3.151 0-5.816 2.054-6.619 5.106-.791 3.006.666 6.177 3.353 7.74 36.966 21.513 79.131 32.883 121.955 32.883 37.485 0 72.549-7.439 104.219-22.109 29.033-13.449 54.689-32.674 76.255-57.141 20.09-22.792 35.8-49.103 46.692-78.201 10.383-27.737 15.871-57.333 15.871-85.589v-1.346c-.001-4.537 2.051-8.806 5.631-11.712a174.776 174.776 0 0 0 35.16-38.591c2.573-3.849-1.485-8.673-5.719-6.795z"></path></svg><svg viewBox="0 0 512 512" width="512" height="512" id="soc-vk" y="11408"><path d="M440.649 295.361c16.984 16.582 34.909 32.182 50.142 50.436 6.729 8.112 13.099 16.482 17.973 25.896 6.906 13.382.651 28.108-11.348 28.907l-74.59-.034c-19.238 1.596-34.585-6.148-47.489-19.302-10.327-10.519-19.891-21.714-29.821-32.588-4.071-4.444-8.332-8.626-13.422-11.932-10.182-6.609-19.021-4.586-24.84 6.034-5.926 10.802-7.271 22.762-7.853 34.8-.799 17.564-6.108 22.182-23.751 22.986-37.705 1.778-73.489-3.926-106.732-22.947-29.308-16.768-52.034-40.441-71.816-67.24-38.513-52.183-68.008-109.525-94.516-168.473-5.967-13.281-1.603-20.41 13.051-20.663 24.333-.473 48.663-.439 73.025-.034 9.89.145 16.437 5.817 20.256 15.16 13.165 32.371 29.274 63.169 49.494 91.716 5.385 7.6 10.876 15.201 18.694 20.55 8.65 5.923 15.236 3.96 19.305-5.676 2.582-6.11 3.713-12.691 4.295-19.234 1.928-22.513 2.182-44.988-1.199-67.422-2.076-14.001-9.962-23.065-23.933-25.714-7.129-1.351-6.068-4.004-2.616-8.073 5.995-7.018 11.634-11.387 22.875-11.387h84.298c13.271 2.619 16.218 8.581 18.035 21.934l.072 93.637c-.145 5.169 2.582 20.51 11.893 23.931 7.452 2.436 12.364-3.526 16.836-8.251 20.183-21.421 34.588-46.737 47.457-72.951 5.711-11.527 10.622-23.497 15.381-35.458 3.526-8.875 9.059-13.242 19.056-13.049l81.132.072c2.406 0 4.84.035 7.17.434 13.671 2.33 17.418 8.211 13.195 21.561-6.653 20.945-19.598 38.4-32.255 55.935-13.53 18.721-28.001 36.802-41.418 55.634-12.328 17.2-11.349 25.868 3.964 40.805z"></path></svg><svg width="64" height="64" viewBox="0 0 64 64" id="soc-youtube" y="11920"><path d="M37.635 41.44c-.542 0-1.088.257-1.635.79v10.999c.547.544 1.093.806 1.635.806.941 0 1.423-.806 1.423-2.434v-7.698c.001-1.632-.482-2.463-1.423-2.463zm11.966 0c-1.093 0-1.642.831-1.642 2.502v1.671h3.274v-1.671c.001-1.671-.546-2.502-1.632-2.502z"></path><path d="M56.396 29.049c-2.055-2.139-4.357-2.148-5.414-2.271-7.556-.54-18.889-.54-18.889-.54h-.025s-11.333 0-18.896.54c-1.054.123-3.352.133-5.409 2.271-1.618 1.632-2.147 5.327-2.147 5.327s-.536 4.343-.536 8.685v4.073c0 4.341.536 8.686.536 8.686s.529 3.695 2.147 5.321c2.057 2.139 4.753 2.072 5.952 2.295 4.324.413 18.365.538 18.365.538s11.347-.016 18.903-.562c1.057-.121 3.359-.133 5.414-2.271 1.619-1.626 2.147-5.321 2.147-5.321s.536-4.345.536-8.686v-4.073c0-4.342-.536-8.685-.536-8.685s-.529-3.695-2.148-5.327zM16.979 56.755h-3.642V35.953H9.486v-3.406H20.9v3.406h-3.92v20.802zm12.912 0h-3.278v-1.969c-1.299 1.489-2.54 2.221-3.742 2.221-1.054 0-1.781-.432-2.112-1.346-.178-.546-.286-1.409-.286-2.683V38.717h3.275v13.28c0 .765 0 1.164.024 1.27.083.507.336.769.771.769.658 0 1.341-.507 2.069-1.533V38.717h3.278v18.038zm12.44-5.409c0 1.663-.11 2.866-.331 3.631-.438 1.344-1.313 2.03-2.613 2.03-1.168 0-2.294-.647-3.387-1.999v1.747h-3.277V32.547H36v7.905c1.056-1.299 2.179-1.956 3.387-1.956 1.299 0 2.174.688 2.613 2.036.221.729.331 1.918.331 3.628v7.186zM54.51 48.33h-6.55v3.199c0 1.671.549 2.506 1.673 2.506.806 0 1.275-.44 1.463-1.311.029-.178.073-.908.073-2.219h3.341v.479c0 1.051-.043 1.776-.071 2.106a4.606 4.606 0 0 1-.766 1.955c-.906 1.312-2.25 1.96-3.963 1.96-1.711 0-3.014-.618-3.96-1.853-.696-.902-1.051-2.326-1.051-4.241v-6.319c0-1.927.318-3.333 1.012-4.249.946-1.234 2.249-1.849 3.922-1.849 1.643 0 2.947.614 3.863 1.849.685.916 1.015 2.322 1.015 4.249v3.738zM23.436 24.434v-9.908L27.848-.026h-3.71l-2.503 9.605L19.03-.026h-3.863c.777 2.268 1.581 4.544 2.356 6.816 1.174 3.411 1.91 5.982 2.244 7.735v9.908h3.669zm8.611.251c1.656 0 2.942-.624 3.858-1.864.692-.91 1.029-2.346 1.029-4.287v-6.387c0-1.945-.337-3.367-1.029-4.289-.917-1.25-2.202-1.87-3.858-1.87-1.654 0-2.943.62-3.854 1.87-.707.922-1.034 2.344-1.034 4.289v6.387c0 1.941.327 3.377 1.034 4.287.911 1.24 2.2 1.864 3.854 1.864zm-1.581-13.199c0-1.686.514-2.529 1.581-2.529 1.062 0 1.573.844 1.573 2.529v7.669c0 1.687-.511 2.53-1.573 2.53-1.067 0-1.581-.844-1.581-2.53v-7.669zm18.522 12.948V6.203H45.68v13.935c-.733 1.034-1.427 1.548-2.088 1.548-.445 0-.708-.265-.777-.773-.042-.109-.042-.51-.042-1.285V6.203h-3.299v14.418c0 1.289.108 2.161.293 2.711.332.92 1.068 1.353 2.133 1.353 1.204 0 2.46-.732 3.781-2.24v1.989h3.307z"></path></svg><svg viewBox="0 0 490.727 490.727" width="490.727" height="490.727" id="star" y="11984"><path d="M453.443 160.214l-119.7-8.6c-2.5-.2-4.7-1.7-5.6-4.1l-45.6-111c-6.3-15.3-20.5-24.8-37.1-24.8s-30.7 9.5-37.1 24.9l-45.7 111.1c-1 2.3-3.1 3.9-5.6 4.1l-119.5 8.6c-16.2.9-30 11.5-35.3 27.1-5.4 15.8-.9 32.4 11.9 43.3l92.5 76.4c1.9 1.6 2.8 4.2 2.2 6.6l-28.2 115.4c-3.3 12-1 24.4 6.3 34.1 7.5 9.8 19.2 15.7 31.5 15.7 7.6 0 15-2.3 21.1-6.4l101.1-62.9c2.1-1.3 4.8-1.3 6.9 0l102.1 62.7c6.4 4.3 13.8 6.6 21.3 6.6 11.5 0 22.9-5.5 30.3-14.8 7.7-9.6 10.5-22.1 7.7-34.6l-28.3-115.7c-.6-2.5.3-5.1 2.2-6.7l93.9-76.6c12.6-10.8 17.1-27.4 11.8-43.2-5.2-15.6-19.1-26.3-35.1-27.2zm7.7 51.5l-93.7 76.5c-9.2 7.5-13.4 19.9-10.5 31.5l28.3 115.5c1.5 6.8-1.2 11.5-3 13.7-2.8 3.5-7 5.7-11.2 5.7-2.6 0-5.2-.8-8-2.7l-102.5-63c-4.9-3-10.5-4.6-16.3-4.6s-11.5 1.6-16.4 4.7l-101.5 63.1c-6.5 4.3-15.2 2.4-19.8-3.6-1.9-2.5-3.9-6.8-2.1-13.1l28.3-115.8c2.8-11.5-1.3-23.8-10.4-31.3l-92.3-76.3c-7.3-6.3-5.3-14.4-4.5-16.7s4.1-10 13.7-10.5l119.7-8.6c11.8-.9 22-8.2 26.5-19.2l45.7-111.1c3.7-9 12-9.7 14.4-9.7 2.4 0 10.7.7 14.4 9.7l45.7 111.1c4.5 11 14.7 18.3 26.5 19.2l119.9 8.7c9.4.5 12.7 8.2 13.5 10.5.6 2.1 2.6 10.2-4.4 16.3z"></path></svg></svg>